<svg version="1.1" id="Layer_1" xmlns="http://www.w3.org/2000/svg" xmlns:xlink="http://www.w3.org/1999/xlink" x="0px" y="0px"
	 width="100%" viewBox="0 0 288 288" enable-background="new 0 0 288 288" xml:space="preserve">
<path fill="#FDFDF4" opacity="1.000000" stroke="none" 
	d="
M289.000000,105.000000 
	C289.000000,166.640121 289.000000,227.780258 289.000000,288.960205 
	C193.068222,288.960205 97.136421,288.960205 1.102311,288.960205 
	C1.102311,193.109970 1.102311,97.219788 1.102311,1.164804 
	C96.999771,1.164804 192.999863,1.164804 289.000000,1.164804 
	C289.000000,35.530125 289.000000,70.015060 289.000000,105.000000 
M229.163773,176.588730 
	C229.163773,176.588730 229.286362,176.724060 229.283295,175.880173 
	C228.561295,175.805573 227.839294,175.730988 227.170288,175.583267 
	C227.170288,175.583267 227.178116,175.493286 227.699753,175.053879 
	C227.493668,174.688339 227.287567,174.322815 226.955399,173.326279 
	C225.954712,172.578842 224.954041,171.831406 223.621078,170.505859 
	C220.489151,167.620392 217.357239,164.734924 214.098358,161.201523 
	C212.700577,160.216339 211.302795,159.231155 209.522034,157.736938 
	C208.373154,156.809189 207.224289,155.881439 205.959656,154.318527 
	C204.949036,153.591339 203.938400,152.864166 202.548569,151.595947 
	C200.402328,149.707794 198.256104,147.819641 196.033401,145.318146 
	C195.424469,144.783066 194.815536,144.248001 194.421906,143.115372 
	C196.973587,139.783783 199.525269,136.452209 202.666901,132.981522 
	C203.040207,132.293961 203.413513,131.606400 204.289368,130.465515 
	C206.580597,127.389442 208.871826,124.313377 211.757675,121.014961 
	C212.358521,119.962090 212.959366,118.909218 214.067657,117.389877 
	C215.717911,114.936401 217.368149,112.482918 219.609619,109.900307 
	C219.927521,109.217194 220.245422,108.534073 221.057190,107.351128 
	C223.747101,102.960442 226.437012,98.569756 229.682693,93.952454 
	C229.959869,93.249283 230.237030,92.546112 230.875870,91.297775 
	C231.363968,90.334076 231.852066,89.370377 232.858643,88.081978 
	C233.145126,87.352303 233.431610,86.622627 234.073395,85.463829 
	C234.153671,85.104012 234.233948,84.744186 234.857880,84.079483 
	C235.149887,83.353279 235.441895,82.627068 236.023499,81.420776 
	C236.100266,81.056717 236.177048,80.692650 236.835297,80.084137 
	C237.098587,79.346962 237.361877,78.609795 237.900208,77.356773 
	C237.986298,76.977959 238.072372,76.599152 238.777802,75.972893 
	C239.490997,74.833763 240.204193,73.694626 241.741760,72.544258 
	C249.151932,71.305176 256.562103,70.066093 264.382568,69.482170 
	C268.136932,69.098389 271.891327,68.714607 275.645691,68.330833 
	C275.576416,67.570259 275.507141,66.809685 275.437866,66.049110 
	C272.616089,66.049110 269.794342,66.049110 266.164642,65.949326 
	C259.496674,64.773895 252.814957,63.666470 246.180389,62.325813 
	C245.456406,62.179516 245.003922,60.689571 244.737610,59.254688 
	C244.749878,58.825455 244.762146,58.396217 245.218796,57.378429 
	C245.590134,54.858166 245.961456,52.337902 246.553253,48.947403 
	C246.474701,45.355888 246.396133,41.764378 246.669312,37.477459 
	C246.522171,34.392403 245.952393,31.029062 242.251801,31.195692 
	C240.855392,31.258568 239.537308,34.459480 238.335785,36.327824 
	C238.081436,36.723335 238.491669,37.546230 238.363434,38.862110 
	C238.318222,39.586342 238.272995,40.310570 237.737473,41.541199 
	C236.752457,44.760113 235.767441,47.979027 234.408768,51.739193 
	C234.119553,52.327732 233.830338,52.916267 233.013412,53.905094 
	C232.491409,55.318855 231.969391,56.732616 231.142303,58.637581 
	C231.032516,59.005722 230.922745,59.373863 230.218094,59.912971 
	C229.857880,60.634041 229.497650,61.355110 228.291885,62.309002 
	C226.837936,62.343182 225.384003,62.377365 223.282486,61.932003 
	C208.845016,61.932003 194.407547,61.932003 179.536392,61.932003 
	C180.073547,59.388542 180.340561,58.124172 181.016876,56.484982 
	C181.145355,56.141769 181.273834,55.798561 181.937500,55.062714 
	C182.444916,53.653091 182.952332,52.243469 183.799179,50.363598 
	C183.936066,50.004093 184.072952,49.644592 184.849915,49.001835 
	C186.018784,44.941040 187.187637,40.880241 188.576263,36.174160 
	C188.522064,35.503834 188.467880,34.833511 188.735703,33.511883 
	C186.387131,29.319651 185.652710,29.160898 181.760757,32.555603 
	C180.461868,34.638462 179.162979,36.721321 177.262100,38.938225 
	C176.999619,39.678799 176.737137,40.419369 175.962967,41.642418 
	C173.571091,45.331268 171.179214,49.020115 168.181778,52.875858 
	C167.852982,53.610680 167.524200,54.345501 166.883957,55.319000 
	C166.883957,55.319000 166.772232,55.695164 166.166031,55.963573 
	C165.162491,57.663910 164.158966,59.364243 162.714569,61.542805 
	C162.200165,61.936153 161.685760,62.329502 160.273209,62.484425 
	C154.531708,63.076920 148.790192,63.669415 142.166397,64.192139 
	C139.835434,64.364769 137.504471,64.537407 134.336670,64.349014 
	C129.906036,64.981331 125.475410,65.613640 120.262146,66.175285 
	C119.226814,66.299965 118.191483,66.424644 116.293266,66.219193 
	C114.144897,66.241905 111.996521,66.264618 109.756462,65.688530 
	C109.661705,65.510208 109.566948,65.331894 109.670540,64.545708 
	C109.132225,64.008026 108.593910,63.470348 108.005486,63.002529 
	C108.005486,63.002529 108.067215,62.941658 107.804161,62.236443 
	C107.315102,60.101322 101.811287,62.491791 104.443321,57.624462 
	C105.006432,56.813316 105.569542,56.002171 106.743271,55.044819 
	C107.118706,54.344524 107.494141,53.644226 108.358368,52.495968 
	C109.943283,50.385651 111.528198,48.275333 113.714439,46.012100 
	C114.079666,45.315632 114.444885,44.619160 115.213181,43.546982 
	C115.519569,43.094849 115.825951,42.642715 116.764366,41.994431 
	C117.782982,40.304966 118.801598,38.615505 120.108849,36.652622 
	C120.108849,36.652622 120.193176,36.264095 120.793045,36.068775 
	C121.117989,35.349144 121.442932,34.629513 122.046425,33.594921 
	C122.046425,33.594921 122.127457,33.182335 122.767975,32.953796 
	C124.146790,30.190939 125.933731,27.539759 126.733131,24.618349 
	C127.135979,23.146128 126.214859,20.330027 125.036850,19.685623 
	C123.881592,19.053667 121.641182,20.405430 119.989578,21.002260 
	C119.989578,21.002260 119.889191,20.876562 119.233910,20.956310 
	C118.236626,22.337507 117.239349,23.718704 115.719261,25.526712 
	C113.447220,28.301882 111.175171,31.077053 108.278229,33.993912 
	C107.610268,35.030655 106.942307,36.067394 105.783180,37.471237 
	C105.167839,38.281040 104.552505,39.090843 103.312828,40.041382 
	C102.609512,41.054447 101.906197,42.067516 100.694176,43.459148 
	C99.769646,44.598454 98.845116,45.737759 97.295120,47.010174 
	C96.594337,48.032856 95.893555,49.055534 94.614281,50.535046 
	C93.635437,51.585892 92.656586,52.636734 91.581253,53.791164 
	C88.999107,52.063160 86.603554,50.460022 83.988724,48.262371 
	C82.936897,47.681976 81.885078,47.101582 80.404137,46.033344 
	C79.325790,45.317886 78.247437,44.602428 77.002213,43.302765 
	C76.293938,42.984016 75.585655,42.665268 74.415253,41.897228 
	C73.325676,41.232067 72.236099,40.566902 70.916260,39.293514 
	C69.582237,38.602600 68.248207,37.911690 66.680809,36.893429 
	C66.680809,36.893429 66.292511,36.789261 66.068100,36.220078 
	C65.340027,35.921772 64.611954,35.623466 63.457237,34.893311 
	C62.741135,34.521744 62.025036,34.150177 61.070465,33.143234 
	C59.014221,32.183769 56.957977,31.224304 54.522354,29.871256 
	C54.174896,29.776722 53.827438,29.682188 53.030487,29.046309 
	C51.660358,28.577845 50.274212,27.693491 48.924129,27.745493 
	C47.211121,27.811474 45.527393,28.637587 43.831039,29.135925 
	C44.586422,30.698330 45.341801,32.260738 46.419514,34.363178 
	C47.553822,35.281738 48.688129,36.200298 49.967125,37.722649 
	C50.673553,38.073574 51.379982,38.424500 52.467777,39.190540 
	C52.949120,39.478809 53.430462,39.767082 54.013664,40.666111 
	C54.711586,41.039581 55.409508,41.413052 56.490120,42.332928 
	C58.976452,44.232498 61.462788,46.132069 64.092598,48.624313 
	C64.757126,49.008820 65.421654,49.393322 66.528076,50.288570 
	C69.626534,52.898056 72.724998,55.507542 75.963455,58.752800 
	C76.998428,59.459385 78.033409,60.165966 79.408165,61.381824 
	C80.046425,61.882381 80.684685,62.382942 81.421463,63.703701 
	C81.366508,64.510689 81.311562,65.317673 80.722290,66.491257 
	C79.467369,67.971504 78.212448,69.451752 76.330116,71.065956 
	C75.605255,72.071495 74.880394,73.077026 73.609810,74.464226 
	C71.350433,77.227974 69.091057,79.991730 66.205330,82.918808 
	C65.552544,83.977448 64.899757,85.036079 63.766529,86.474899 
	C63.162029,87.291382 62.557529,88.107864 61.347298,89.030556 
	C60.932598,89.705902 60.517895,90.381248 59.560875,91.404541 
	C58.346172,92.893509 57.131470,94.382477 55.264416,96.005890 
	C53.909168,97.704956 52.553921,99.404022 50.658749,101.426773 
	C49.717197,102.536835 48.775650,103.646904 47.171722,104.890808 
	C45.845333,106.952606 44.518944,109.014397 42.720615,111.464485 
	C42.136353,112.292282 41.552090,113.120087 40.311985,114.085732 
	C38.659836,115.957008 37.007690,117.828293 35.355541,119.699570 
	C35.565456,120.018913 35.775372,120.338264 35.985291,120.657608 
	C38.149307,119.264236 40.313324,117.870872 43.022991,116.346725 
	C43.308537,116.113556 43.594082,115.880379 44.585972,115.664360 
	C47.457977,113.821449 50.329983,111.978539 53.806942,109.885620 
	C55.828377,108.134079 57.849815,106.382530 60.519981,104.627815 
	C62.047733,103.107002 63.575485,101.586189 65.674393,99.734901 
	C68.095451,97.451035 70.516518,95.167168 73.546028,92.816322 
	C74.023415,92.206657 74.500801,91.596992 75.553871,90.652794 
	C80.102798,85.793701 84.651718,80.934608 89.938820,76.143280 
	C91.771454,76.660759 93.604088,77.178230 96.036674,77.962784 
	C96.221642,78.937660 96.406616,79.912544 95.870903,81.140366 
	C95.888237,85.089798 95.905571,89.039230 96.054184,93.918930 
	C95.846855,100.234444 95.639526,106.549957 94.772263,113.218323 
	C94.750626,117.462288 94.728989,121.706245 94.848251,126.599365 
	C94.763321,127.029739 94.678398,127.460106 93.891541,128.181396 
	C93.638313,132.520523 93.385094,136.859650 92.774101,141.760056 
	C87.178123,146.832291 81.582146,151.904510 75.377419,157.053986 
	C74.950310,157.720184 74.523209,158.386383 73.546051,159.429428 
	C69.729118,163.371292 65.912186,167.313156 61.455353,171.249252 
	C60.562546,172.115387 59.669735,172.981522 58.259212,174.035477 
	C57.860928,174.412094 57.462643,174.788727 56.385273,175.133682 
	C54.856804,176.351944 53.328335,177.570206 51.996159,179.001221 
	C51.996159,179.001221 51.796646,178.790237 51.093136,178.815704 
	C48.321796,180.749710 45.550457,182.683716 42.779118,184.617737 
	C45.492062,185.035004 47.790989,184.539062 49.920292,183.640976 
	C58.047352,180.213165 66.119759,176.655823 74.798775,173.062454 
	C75.156738,172.900085 75.514702,172.737732 76.555054,172.739075 
	C78.092552,171.863266 79.630043,170.987442 81.765411,169.939560 
	C82.121834,169.729858 82.478256,169.520157 83.409088,169.517593 
	C83.990692,169.045792 84.572304,168.573990 85.809273,167.915390 
	C87.823639,166.491714 89.838005,165.068039 92.570534,163.711136 
	C93.038857,163.819748 93.507179,163.928375 93.831963,164.908417 
	C93.774994,167.800293 93.718018,170.692169 93.123833,174.113052 
	C93.096016,178.406006 93.068199,182.698975 92.856209,187.904037 
	C92.914879,191.937851 92.973549,195.971649 92.591286,200.681351 
	C92.746193,204.184799 92.901100,207.688263 92.679962,211.800522 
	C91.806602,212.910004 90.933243,214.019485 89.421555,215.197189 
	C88.550278,216.094589 87.679001,216.992004 86.243080,218.112534 
	C85.522194,218.801270 84.801300,219.490005 83.443947,220.235458 
	C82.547142,221.108429 81.650345,221.981400 80.326492,222.955429 
	C80.326492,222.955429 80.087402,223.323441 79.416138,223.370499 
	C71.467880,228.489258 63.519619,233.608032 55.014126,238.746078 
	C54.640331,239.106827 54.266541,239.467560 53.231945,239.982697 
	C52.175396,240.986526 51.118843,241.990372 50.048588,243.346024 
	C49.814068,243.424393 49.579548,243.502762 49.345020,243.581131 
	C49.571819,243.375122 49.798615,243.169113 50.615566,243.062164 
	C52.079002,242.716919 53.542439,242.371658 55.661594,242.162933 
	C56.098022,242.074707 56.534454,241.986481 57.594540,241.979462 
	C58.355549,241.298309 59.116558,240.617157 60.662567,239.980209 
	C63.080059,239.209427 65.497551,238.438644 68.666878,237.840042 
	C74.930801,234.994720 81.194725,232.149414 87.984108,229.311462 
	C88.310898,229.188477 88.637695,229.065491 89.706253,229.077972 
	C93.880219,226.748352 92.101891,231.503250 93.546295,233.122375 
	C93.598274,234.406708 93.650261,235.691025 93.246788,237.648422 
	C93.614494,241.751129 93.982208,245.853821 94.368591,250.574371 
	C94.482162,250.968460 94.595741,251.362534 94.373215,252.304016 
	C94.803207,252.976822 95.233192,253.649628 95.799805,255.075241 
	C96.172966,257.385803 96.546120,259.696350 96.516144,262.287994 
	C96.849762,262.926117 97.183388,263.564240 97.684128,264.945251 
	C97.819283,265.950165 97.954437,266.955048 97.777512,268.751862 
	C97.836723,270.165741 97.895935,271.579620 97.509285,273.600739 
	C97.697525,276.524689 97.885773,279.448639 98.074020,282.372620 
	C98.772087,282.391144 99.470154,282.409668 100.168228,282.428162 
	C100.345512,279.886749 100.522797,277.345306 100.852882,273.956299 
	C100.851494,271.948669 100.850113,269.941071 101.065636,267.198578 
	C101.579567,264.446381 102.093498,261.694214 103.141731,258.482147 
	C103.502274,256.917450 103.862816,255.352783 104.509895,253.215347 
	C104.595406,252.798782 104.680916,252.382217 105.376198,251.594437 
	C105.625191,249.055786 105.874184,246.517120 106.280190,243.178299 
	C106.393616,240.765244 106.507034,238.352203 107.159195,235.343948 
	C107.245766,232.500992 107.332336,229.658020 107.620834,226.002808 
	C107.135368,221.698044 109.407188,219.423965 112.753616,216.833466 
	C128.348007,204.761703 143.577942,192.219116 159.600601,179.785049 
	C161.741531,177.528000 163.882446,175.270966 166.593430,172.693756 
	C168.400482,170.804016 170.207520,168.914291 172.667130,166.907318 
	C174.073593,165.251038 175.480072,163.594772 177.455643,161.588470 
	C179.915390,158.870605 182.375137,156.152725 185.650101,153.348648 
	C188.120834,154.511856 190.591553,155.675049 193.460815,157.223953 
	C193.931549,157.509781 194.402298,157.795624 195.007309,158.673599 
	C195.716858,158.981598 196.426407,159.289597 197.566284,160.080460 
	C198.663528,160.751450 199.760773,161.422424 201.090683,162.719910 
	C207.782776,166.621689 214.474869,170.523468 221.631470,174.775558 
	C221.989975,174.918655 222.348495,175.061752 222.905167,175.860291 
	C226.934097,178.150787 230.963028,180.441284 234.991974,182.731781 
	C235.318176,182.177704 235.644394,181.623642 235.970612,181.069565 
	C234.063721,179.623398 232.156830,178.177231 229.852081,176.346573 
	C229.674042,176.394669 229.495987,176.442764 229.163773,176.588730 
M92.000877,90.923065 
	C92.000877,96.186371 92.000877,101.449669 92.000877,106.712975 
	C92.233665,106.701546 92.466461,106.690117 92.699249,106.678688 
	C92.699249,100.172928 92.699249,93.667168 92.699249,87.161407 
	C92.466545,87.163483 92.233841,87.165550 92.001137,87.167618 
	C92.001137,88.131882 92.001137,89.096146 92.000877,90.923065 
z"/>
<path fill="#090908" opacity="1.000000" stroke="none" 
	d="
M202.076965,133.120636 
	C199.525269,136.452209 196.973587,139.783783 194.214630,143.763641 
	C194.708206,144.918442 195.409027,145.424957 196.109863,145.931488 
	C198.256104,147.819641 200.402328,149.707794 202.752625,152.204346 
	C203.996262,153.526398 205.035843,154.240051 206.075409,154.953690 
	C207.224289,155.881439 208.373154,156.809189 209.721817,158.334290 
	C211.356171,159.904266 212.790741,160.876862 214.225327,161.849457 
	C217.357239,164.734924 220.489151,167.620392 223.784195,171.138885 
	C224.992035,172.500366 226.036758,173.228821 227.081467,173.957291 
	C227.287567,174.322815 227.493668,174.688339 227.083832,175.436127 
	C225.214264,175.613861 223.960632,175.409348 222.707001,175.204849 
	C222.348495,175.061752 221.989975,174.918655 221.330109,174.282471 
	C214.305161,169.890732 207.581589,165.992065 200.858017,162.093399 
	C199.760773,161.422424 198.663528,160.751450 197.317627,159.521515 
	C196.336990,158.668854 195.605011,158.375153 194.873032,158.081451 
	C194.402298,157.795624 193.931549,157.509781 193.221008,156.694061 
	C191.408524,154.996323 189.954575,153.568695 188.212128,152.772186 
	C187.364487,152.384705 185.977631,153.176758 184.834885,153.434845 
	C182.375137,156.152725 179.915390,158.870605 176.831055,161.772308 
	C174.809174,163.645615 173.411865,165.335083 172.014572,167.024551 
	C170.207520,168.914291 168.400482,170.804016 165.963470,172.847748 
	C163.201752,175.282822 161.069992,177.563873 158.938217,179.844925 
	C143.577942,192.219116 128.348007,204.761703 112.753616,216.833466 
	C109.407188,219.423965 107.135368,221.698044 107.195312,226.569839 
	C106.720009,230.070969 106.670235,233.005051 106.620453,235.939148 
	C106.507034,238.352203 106.393616,240.765244 105.933914,243.829620 
	C105.313911,246.975845 105.040176,249.470749 104.766434,251.965652 
	C104.680916,252.382217 104.595406,252.798782 104.092476,253.626251 
	C103.319183,255.672104 102.963303,257.307068 102.607430,258.942017 
	C102.093498,261.694214 101.579567,264.446381 100.611465,267.549591 
	C99.468056,267.920380 98.778816,267.940155 98.089584,267.959961 
	C97.954437,266.955048 97.819283,265.950165 97.762672,264.277893 
	C97.533905,263.075989 97.226593,262.541443 96.919281,262.006897 
	C96.546120,259.696350 96.172966,257.385803 95.877045,254.413055 
	C95.539291,253.086136 95.124298,252.421387 94.709305,251.756622 
	C94.595741,251.362534 94.482162,250.968460 94.586441,249.934799 
	C94.436951,245.188599 94.069595,241.081985 93.702240,236.975357 
	C93.650261,235.691025 93.598274,234.406708 93.746666,232.324615 
	C93.947037,230.154602 93.947037,228.782349 93.947037,225.893661 
	C91.605263,227.326614 90.284874,228.134552 88.964485,228.942505 
	C88.637695,229.065491 88.310898,229.188477 87.338943,229.210281 
	C80.434204,231.962021 74.174622,234.814941 67.915039,237.667862 
	C65.497551,238.438644 63.080059,239.209427 59.936153,239.917145 
	C58.463455,240.535461 57.717171,241.216858 56.970886,241.898254 
	C56.534454,241.986481 56.098022,242.074707 55.217651,241.808746 
	C54.480057,240.912460 54.186398,240.370377 53.892746,239.828293 
	C54.266541,239.467560 54.640331,239.106827 55.670425,238.826996 
	C62.431995,235.469040 68.622330,232.169250 74.596626,228.516159 
	C76.699150,227.230515 78.272446,225.079376 80.087402,223.323441 
	C80.087402,223.323441 80.326492,222.955429 80.884346,222.959900 
	C82.321602,222.035828 83.201012,221.107285 84.080414,220.178741 
	C84.801300,219.490005 85.522194,218.801270 86.869537,218.042053 
	C88.350624,217.024048 89.205254,216.076508 90.059891,215.128967 
	C90.933243,214.019485 91.806602,212.910004 93.172546,211.287628 
	C93.454155,207.184982 93.243187,203.595215 93.032219,200.005463 
	C92.973549,195.971649 92.914879,191.937851 93.264374,187.174011 
	C93.668701,182.157333 93.664871,177.870697 93.661041,173.584045 
	C93.718018,170.692169 93.774994,167.800293 94.013611,164.160889 
	C93.414299,163.490356 92.633331,163.567368 91.852371,163.644363 
	C89.838005,165.068039 87.823639,166.491714 85.195282,167.931870 
	C83.999084,168.402390 83.416878,168.856415 82.834679,169.310455 
	C82.478256,169.520157 82.121834,169.729858 81.113144,169.965561 
	C78.931473,170.852829 77.402069,171.714096 75.872665,172.575378 
	C75.514702,172.737732 75.156738,172.900085 74.123466,173.031250 
	C67.544655,175.397018 61.638855,177.788345 55.739056,180.194397 
	C53.988659,180.908218 52.213219,181.781189 51.796646,178.790237 
	C51.796646,178.790237 51.996159,179.001221 52.245644,178.977432 
	C54.018208,177.690872 55.541279,176.428101 57.064354,175.165344 
	C57.462643,174.788727 57.860928,174.412094 58.856163,174.022919 
	C60.333832,173.091934 61.214546,172.173477 62.095257,171.255020 
	C65.912186,167.313156 69.729118,163.371292 74.145393,159.227493 
	C75.158546,158.342621 75.572357,157.659668 75.986168,156.976730 
	C81.582146,151.904510 87.178123,146.832291 93.311180,141.305786 
	C94.096657,136.531158 94.345062,132.210815 94.593468,127.890480 
	C94.678398,127.460106 94.763321,127.029739 95.037354,125.963928 
	C95.295029,121.174156 95.363617,117.019814 95.432205,112.865471 
	C95.639526,106.549957 95.846855,100.234444 96.182251,93.100601 
	C96.404068,88.483986 96.497826,84.685699 96.591583,80.887421 
	C96.406616,79.912544 96.221642,78.937660 95.616264,77.495087 
	C93.939491,75.864059 92.683121,74.700729 91.143219,73.274857 
	C90.401146,74.344719 89.800888,75.210114 89.200638,76.075516 
	C84.651718,80.934608 80.102798,85.793701 74.945175,90.814751 
	C73.870186,91.612244 73.403885,92.247772 72.937576,92.883301 
	C70.516518,95.167168 68.095451,97.451035 65.045975,99.872879 
	C62.902126,101.550903 61.386688,103.090942 59.871254,104.630981 
	C57.849815,106.382530 55.828377,108.134079 53.138908,109.960320 
	C49.607124,111.905746 46.743374,113.776474 43.879623,115.647202 
	C43.594082,115.880379 43.308537,116.113556 42.442184,116.172363 
	C41.563530,115.314621 41.265678,114.631256 40.967827,113.947884 
	C41.552090,113.120087 42.136353,112.292282 43.295593,111.244019 
	C45.191750,108.934692 46.512928,106.845833 47.834103,104.756973 
	C48.775650,103.646904 49.717197,102.536835 51.269844,101.256760 
	C53.226219,99.348320 54.571499,97.609886 55.916775,95.871445 
	C57.131470,94.382477 58.346172,92.893509 60.159714,91.218552 
	C61.156712,90.329826 61.554874,89.627090 61.953033,88.924355 
	C62.557529,88.107864 63.162029,87.291382 64.345329,86.253281 
	C65.559975,84.939606 66.195831,83.847542 66.831680,82.755486 
	C69.091057,79.991730 71.350433,77.227974 74.221313,74.265121 
	C75.541054,73.021347 76.249290,71.976677 76.957535,70.932007 
	C78.212448,69.451752 79.467369,67.971504 81.312180,66.287094 
	C81.709030,65.016457 81.515991,63.949978 81.322945,62.883499 
	C80.684685,62.382942 80.046425,61.882381 79.217850,60.785152 
	C77.959511,59.497997 76.891487,58.807514 75.823456,58.117027 
	C72.724998,55.507542 69.626534,52.898056 66.289551,49.709427 
	C65.350388,48.764072 64.649757,48.397854 63.949123,48.031639 
	C61.462788,46.132069 58.976452,44.232498 56.275780,41.735649 
	C55.344898,40.777367 54.628353,40.416363 53.911804,40.055355 
	C53.430462,39.767082 52.949120,39.478809 52.253994,38.649788 
	C51.300953,37.778973 50.561695,37.448914 49.822437,37.118855 
	C48.688129,36.200298 47.553822,35.281738 46.288563,33.722069 
	C45.892696,31.870918 45.627781,30.660881 45.282818,29.085230 
	C48.347286,29.273058 50.913631,29.430357 53.479980,29.587654 
	C53.827438,29.682188 54.174896,29.776722 54.755333,30.407389 
	C57.095184,31.888552 59.202057,32.833580 61.308933,33.778610 
	C62.025036,34.150177 62.741135,34.521744 63.715546,35.441879 
	C64.746735,36.256714 65.519623,36.522987 66.292511,36.789261 
	C66.292511,36.789261 66.680809,36.893429 66.833252,37.396477 
	C68.372635,38.566929 69.759575,39.234333 71.146523,39.901741 
	C72.236099,40.566902 73.325676,41.232067 74.679871,42.445457 
	C75.686020,43.291447 76.427551,43.589207 77.169090,43.886967 
	C78.247437,44.602428 79.325790,45.317886 80.678467,46.596439 
	C82.037857,47.725319 83.122932,48.291103 84.208000,48.856888 
	C86.603554,50.460022 88.999107,52.063160 91.581253,53.791164 
	C92.656586,52.636734 93.635437,51.585892 95.240616,50.290047 
	C96.551498,48.989056 97.236038,47.933060 97.920578,46.877064 
	C98.845116,45.737759 99.769646,44.598454 101.281509,43.246178 
	C102.558289,41.989017 103.247734,40.944836 103.937172,39.900650 
	C104.552505,39.090843 105.167839,38.281040 106.363586,37.261330 
	C107.597046,35.985023 108.250084,34.918625 108.903130,33.852222 
	C111.175171,31.077053 113.447220,28.301882 116.317688,25.304941 
	C117.907143,23.680967 118.898163,22.278763 119.889191,20.876560 
	C119.889191,20.876562 119.989578,21.002260 120.368637,20.995716 
	C125.018936,20.153175 125.761322,22.491495 124.853294,25.849516 
	C124.175476,28.356195 123.052307,30.742451 122.127457,33.182335 
	C122.127457,33.182335 122.046425,33.594921 121.577774,33.802841 
	C120.803810,34.761868 120.498489,35.512981 120.193176,36.264095 
	C120.193176,36.264095 120.108849,36.652622 119.627579,36.827202 
	C118.141655,38.731377 117.136993,40.460976 116.132339,42.190578 
	C115.825951,42.642715 115.519569,43.094849 114.686447,43.775146 
	C113.810844,44.723885 113.461983,45.444454 113.113113,46.165020 
	C111.528198,48.275333 109.943283,50.385651 107.782730,52.753822 
	C106.848938,53.738125 106.490791,54.464573 106.132645,55.191025 
	C105.569542,56.002171 105.006432,56.813316 103.855530,57.824532 
	C102.449356,59.259315 101.630966,60.494038 100.530899,62.153728 
	C103.620361,62.476738 105.843788,62.709198 108.067215,62.941658 
	C108.067215,62.941658 108.005486,63.002529 108.000610,63.261303 
	C108.487892,64.064575 108.980042,64.609077 109.472191,65.153580 
	C109.566948,65.331894 109.661705,65.510208 109.834381,66.370743 
	C112.326912,66.885071 114.741531,66.717194 117.156151,66.549316 
	C118.191483,66.424644 119.226814,66.299965 120.942841,66.459106 
	C126.140198,66.065292 130.656860,65.387665 135.173508,64.710037 
	C137.504471,64.537407 139.835434,64.364769 142.910522,64.483810 
	C149.493561,64.091270 155.332458,63.407063 161.171371,62.722851 
	C161.685760,62.329502 162.200165,61.936153 163.273407,61.257736 
	C164.812241,59.213501 165.792236,57.454330 166.772217,55.695160 
	C166.772232,55.695164 166.883957,55.319000 167.372421,55.160255 
	C168.169693,54.237328 168.478516,53.473145 168.787338,52.708961 
	C171.179214,49.020115 173.571091,45.331268 176.526123,41.332512 
	C177.347549,40.283127 177.605804,39.543652 177.864075,38.804176 
	C179.162979,36.721321 180.461868,34.638462 182.380035,32.358978 
	C184.804092,32.829296 186.608902,33.496239 188.413696,34.163185 
	C188.467880,34.833511 188.522064,35.503834 188.159821,36.645538 
	C186.565521,41.172974 185.387680,45.229031 184.209839,49.285088 
	C184.072952,49.644592 183.936066,50.004093 183.314056,50.721008 
	C182.353394,52.537399 181.877853,53.996376 181.402313,55.455353 
	C181.273834,55.798561 181.145355,56.141769 180.466293,56.758438 
	C179.160828,58.706444 178.405960,60.380993 177.242203,62.962563 
	C179.977402,62.962563 181.586395,62.962055 183.195389,62.962643 
	C194.506073,62.966770 205.816910,63.001595 217.127335,62.949757 
	C219.395691,62.939362 221.662521,62.599495 223.930054,62.411545 
	C225.384003,62.377365 226.837936,62.343182 229.054565,62.165916 
	C230.149170,61.262558 230.481064,60.502281 230.812958,59.742004 
	C230.922745,59.373863 231.032516,59.005722 231.624542,58.289635 
	C232.584915,56.462730 233.063019,54.983772 233.541138,53.504807 
	C233.830338,52.916267 234.119553,52.327732 234.882523,51.322716 
	C236.313446,47.615757 237.270599,44.325279 238.227768,41.034801 
	C238.272995,40.310570 238.318222,39.586342 238.787079,38.377159 
	C240.293945,36.262806 241.377167,34.633400 242.460388,33.003994 
	C243.488022,34.541786 244.503448,36.088036 245.555664,37.608829 
	C245.725861,37.854805 246.059494,37.987698 246.317566,38.172859 
	C246.396133,41.764378 246.474701,45.355888 246.144379,49.541019 
	C245.415131,52.745419 245.094772,55.356201 244.774414,57.966984 
	C244.762146,58.396217 244.749878,58.825455 244.252747,59.646023 
	C241.982590,63.178101 244.077469,63.496571 246.442154,63.988487 
	C252.298370,65.206718 258.114838,66.616104 263.883087,68.170273 
	C263.818909,68.391861 263.972290,68.827011 263.972290,68.827011 
	C256.562103,70.066093 249.151932,71.305176 241.098206,72.359062 
	C239.689255,73.522690 238.923859,74.871513 238.158463,76.220337 
	C238.072372,76.599152 237.986298,76.977959 237.447906,77.700546 
	C236.748352,78.805748 236.501099,79.567169 236.253830,80.328590 
	C236.177048,80.692650 236.100266,81.056717 235.546021,81.727325 
	C234.817108,82.817375 234.565674,83.600876 234.314224,84.384369 
	C234.233948,84.744186 234.153671,85.104012 233.558029,85.737000 
	C232.808502,86.809006 232.574341,87.607841 232.340179,88.406677 
	C231.852066,89.370377 231.363968,90.334076 230.386734,91.641365 
	C229.640701,92.716324 229.383820,93.447701 229.126923,94.179070 
	C226.437012,98.569756 223.747101,102.960442 220.516846,107.665222 
	C219.657135,108.662689 219.337769,109.346062 219.018402,110.029442 
	C217.368149,112.482918 215.717911,114.936401 213.490723,117.683548 
	C212.330231,119.063911 211.746658,120.150612 211.163086,121.237320 
	C208.871826,124.313377 206.580597,127.389442 203.714996,130.722687 
	C202.786072,131.693451 202.431519,132.407043 202.076965,133.120636 
M109.699730,195.937958 
	C111.056084,195.611893 112.810760,195.720184 113.709984,194.895599 
	C131.836395,178.273697 149.869873,161.550354 167.896896,144.820328 
	C168.819443,143.964142 169.517242,142.865753 170.391388,141.792023 
	C160.396515,133.317505 150.678467,125.077690 141.206833,117.046806 
	C131.397217,127.184113 121.770668,137.009583 112.354431,147.032593 
	C111.289078,148.166595 111.091614,150.402023 111.028244,152.146179 
	C110.508827,166.441833 110.116684,180.742126 109.699730,195.937958 
M192.818893,116.321854 
	C203.829514,102.905319 213.803604,88.785713 222.222733,74.542480 
	C205.466339,74.542480 189.018204,74.505356 172.571243,74.627464 
	C171.494400,74.635452 170.070862,75.614555 169.410446,76.561638 
	C163.702194,84.747482 158.074921,92.992165 152.602646,101.336777 
	C152.006424,102.245934 151.979568,104.507347 152.636353,105.111862 
	C161.897186,113.635605 171.322311,121.980835 180.974503,130.607925 
	C184.968033,125.807274 188.678055,121.347435 192.818893,116.321854 
M117.617325,95.775162 
	C115.937492,94.252037 114.257668,92.728912 111.859604,90.554550 
	C111.859604,101.704185 111.859604,111.823059 111.859604,123.161247 
	C117.763496,116.780144 122.866386,111.264786 128.136063,105.569168 
	C124.466324,102.148407 121.311745,99.207848 117.617325,95.775162 
M128.498718,77.020172 
	C126.595016,77.222107 124.691322,77.424034 121.328979,77.780678 
	C127.881943,83.402016 133.326538,88.072563 139.134445,93.054764 
	C143.686874,87.281609 147.898987,81.940048 152.983780,75.491798 
	C143.940720,76.043159 136.651718,76.487572 128.498718,77.020172 
z"/>
<path fill="#4D4D49" opacity="1.000000" stroke="none" 
	d="
M223.606262,62.171772 
	C221.662521,62.599495 219.395691,62.939362 217.127335,62.949757 
	C205.816910,63.001595 194.506073,62.966770 183.195389,62.962643 
	C181.586395,62.962055 179.977402,62.962563 177.242203,62.962563 
	C178.405960,60.380993 179.160828,58.706444 180.261642,56.945847 
	C180.340561,58.124172 180.073547,59.388542 179.536392,61.932003 
	C194.407547,61.932003 208.845016,61.932003 223.606262,62.171772 
z"/>
<path fill="#494946" opacity="1.000000" stroke="none" 
	d="
M51.444893,178.802979 
	C52.213219,181.781189 53.988659,180.908218 55.739056,180.194397 
	C61.638855,177.788345 67.544655,175.397018 73.830368,173.073456 
	C66.119759,176.655823 58.047352,180.213165 49.920292,183.640976 
	C47.790989,184.539062 45.492062,185.035004 42.779118,184.617737 
	C45.550457,182.683716 48.321796,180.749710 51.444893,178.802979 
z"/>
<path fill="#3A3A38" opacity="1.000000" stroke="none" 
	d="
M79.751770,223.346970 
	C78.272446,225.079376 76.699150,227.230515 74.596626,228.516159 
	C68.622330,232.169250 62.431995,235.469040 55.949039,238.817368 
	C63.519619,233.608032 71.467880,228.489258 79.751770,223.346970 
z"/>
<path fill="#4D4D4A" opacity="1.000000" stroke="none" 
	d="
M263.947266,67.948677 
	C258.114838,66.616104 252.298370,65.206718 246.442154,63.988487 
	C244.077469,63.496571 241.982590,63.178101 244.096680,59.930099 
	C245.003922,60.689571 245.456406,62.179516 246.180389,62.325813 
	C252.814957,63.666470 259.496674,64.773895 266.529297,66.341568 
	C265.911713,67.138763 264.929474,67.543716 263.947266,67.948677 
z"/>
<path fill="#484845" opacity="1.000000" stroke="none" 
	d="
M200.974350,162.406647 
	C207.581589,165.992065 214.305161,169.890732 221.097839,174.107330 
	C214.474869,170.523468 207.782776,166.621689 200.974350,162.406647 
z"/>
<path fill="#4D4D49" opacity="1.000000" stroke="none" 
	d="
M122.447716,33.068066 
	C123.052307,30.742451 124.175476,28.356195 124.853294,25.849516 
	C125.761322,22.491495 125.018936,20.153175 120.312363,20.937878 
	C121.641182,20.405430 123.881592,19.053667 125.036850,19.685623 
	C126.214859,20.330027 127.135979,23.146128 126.733131,24.618349 
	C125.933731,27.539759 124.146790,30.190939 122.447716,33.068066 
z"/>
<path fill="#3C3C3A" opacity="1.000000" stroke="none" 
	d="
M68.290955,237.753952 
	C74.174622,234.814941 80.434204,231.962021 87.076218,229.206604 
	C81.194725,232.149414 74.930801,234.994720 68.290955,237.753952 
z"/>
<path fill="#4D4D49" opacity="1.000000" stroke="none" 
	d="
M160.722290,62.603638 
	C155.332458,63.407063 149.493561,64.091270 143.351669,64.518692 
	C148.790192,63.669415 154.531708,63.076920 160.722290,62.603638 
z"/>
<path fill="#4D4D4A" opacity="1.000000" stroke="none" 
	d="
M246.493439,37.825157 
	C246.059494,37.987698 245.725861,37.854805 245.555664,37.608829 
	C244.503448,36.088036 243.488022,34.541786 242.460388,33.003994 
	C241.377167,34.633400 240.293945,36.262806 238.903214,38.032211 
	C238.491669,37.546230 238.081436,36.723335 238.335785,36.327824 
	C239.537308,34.459480 240.855392,31.258568 242.251801,31.195692 
	C245.952393,31.029062 246.522171,34.392403 246.493439,37.825157 
z"/>
<path fill="#898983" opacity="1.000000" stroke="none" 
	d="
M263.883087,68.170273 
	C264.929474,67.543716 265.911713,67.138763 266.933228,66.391457 
	C269.794342,66.049110 272.616089,66.049110 275.437866,66.049110 
	C275.507141,66.809685 275.576416,67.570259 275.645691,68.330833 
	C271.891327,68.714607 268.136932,69.098389 264.177429,69.154587 
	C263.972290,68.827011 263.818909,68.391861 263.883087,68.170273 
z"/>
<path fill="#484845" opacity="1.000000" stroke="none" 
	d="
M222.806091,175.532562 
	C223.960632,175.409348 225.214264,175.613861 226.822998,175.655823 
	C227.178116,175.493286 227.170288,175.583267 227.216827,175.985886 
	C227.937683,176.500351 228.612030,176.612213 229.286362,176.724060 
	C229.286362,176.724060 229.163773,176.588730 229.176880,176.810272 
	C229.543320,176.931580 229.896622,176.831314 230.249939,176.731064 
	C232.156830,178.177231 234.063721,179.623398 235.970612,181.069565 
	C235.644394,181.623642 235.318176,182.177704 234.991974,182.731781 
	C230.963028,180.441284 226.934097,178.150787 222.806091,175.532562 
z"/>
<path fill="#A1A19B" opacity="1.000000" stroke="none" 
	d="
M100.700081,274.803864 
	C100.522797,277.345306 100.345512,279.886749 100.168228,282.428162 
	C99.470154,282.409668 98.772087,282.391144 98.074020,282.372620 
	C97.885773,279.448639 97.697525,276.524689 97.979675,273.454285 
	C99.200066,273.806488 99.950073,274.305176 100.700081,274.803864 
z"/>
<path fill="#4A4A47" opacity="1.000000" stroke="none" 
	d="
M53.255234,29.316982 
	C50.913631,29.430357 48.347286,29.273058 45.282818,29.085230 
	C45.627781,30.660881 45.892696,31.870918 46.127396,33.452049 
	C45.341801,32.260738 44.586422,30.698330 43.831039,29.135925 
	C45.527393,28.637587 47.211121,27.811474 48.924129,27.745493 
	C50.274212,27.693491 51.660358,28.577845 53.255234,29.316982 
z"/>
<path fill="#4D4D49" opacity="1.000000" stroke="none" 
	d="
M134.755096,64.529526 
	C130.656860,65.387665 126.140198,66.065292 121.334167,66.494431 
	C125.475410,65.613640 129.906036,64.981331 134.755096,64.529526 
z"/>
<path fill="#C2C2BB" opacity="1.000000" stroke="none" 
	d="
M95.102234,113.041901 
	C95.363617,117.019814 95.295029,121.174156 94.966904,125.639359 
	C94.728989,121.706245 94.750626,117.462288 95.102234,113.041901 
z"/>
<path fill="#63635F" opacity="1.000000" stroke="none" 
	d="
M93.474518,237.311890 
	C94.069595,241.081985 94.436951,245.188599 94.577103,249.625885 
	C93.982208,245.853821 93.614494,241.751129 93.474518,237.311890 
z"/>
<path fill="#494946" opacity="1.000000" stroke="none" 
	d="
M93.392441,173.848541 
	C93.664871,177.870697 93.668701,182.157333 93.356461,186.717957 
	C93.068199,182.698975 93.096016,178.406006 93.392441,173.848541 
z"/>
<path fill="#C2C2BB" opacity="1.000000" stroke="none" 
	d="
M94.242508,128.035934 
	C94.345062,132.210815 94.096657,136.531158 93.490067,141.025146 
	C93.385094,136.859650 93.638313,132.520523 94.242508,128.035934 
z"/>
<path fill="#C2C2BB" opacity="1.000000" stroke="none" 
	d="
M96.231247,81.013893 
	C96.497826,84.685699 96.404068,88.483986 96.116608,92.635468 
	C95.905571,89.039230 95.888237,85.089798 96.231247,81.013893 
z"/>
<path fill="#F6F6EC" opacity="1.000000" stroke="none" 
	d="
M92.001007,90.491737 
	C92.001137,89.096146 92.001137,88.131882 92.001137,87.167618 
	C92.233841,87.165550 92.466545,87.163483 92.699249,87.161407 
	C92.699249,93.667168 92.699249,100.172928 92.699249,106.678688 
	C92.466461,106.690117 92.233665,106.701546 92.000877,106.712975 
	C92.000877,101.449669 92.000877,96.186371 92.001007,90.491737 
z"/>
<path fill="#4A4A47" opacity="1.000000" stroke="none" 
	d="
M40.639908,114.016808 
	C41.265678,114.631256 41.563530,115.314621 42.169361,116.237747 
	C40.313324,117.870872 38.149307,119.264236 35.985291,120.657608 
	C35.775372,120.338264 35.565456,120.018913 35.355541,119.699570 
	C37.007690,117.828293 38.659836,115.957008 40.639908,114.016808 
z"/>
<path fill="#4D4D49" opacity="1.000000" stroke="none" 
	d="
M184.529877,49.143463 
	C185.387680,45.229031 186.565521,41.172974 188.049927,36.968178 
	C187.187637,40.880241 186.018784,44.941040 184.529877,49.143463 
z"/>
<path fill="#494946" opacity="1.000000" stroke="none" 
	d="
M92.811752,200.343414 
	C93.243187,203.595215 93.454155,207.184982 93.360565,210.983215 
	C92.901100,207.688263 92.746193,204.184799 92.811752,200.343414 
z"/>
<path fill="#4D4D49" opacity="1.000000" stroke="none" 
	d="
M237.982620,41.288002 
	C237.270599,44.325279 236.313446,47.615757 235.069336,51.052086 
	C235.767441,47.979027 236.752457,44.760113 237.982620,41.288002 
z"/>
<path fill="#52524E" opacity="1.000000" stroke="none" 
	d="
M100.776482,274.380066 
	C99.950073,274.305176 99.200066,273.806488 98.202599,273.150635 
	C97.895935,271.579620 97.836723,270.165741 97.933548,268.355896 
	C98.778816,267.940155 99.468056,267.920380 100.503006,267.917023 
	C100.850113,269.941071 100.851494,271.948669 100.776482,274.380066 
z"/>
<path fill="#4A4A47" opacity="1.000000" stroke="none" 
	d="
M44.232796,115.655777 
	C46.743374,113.776474 49.607124,111.905746 52.836426,110.085327 
	C50.329983,111.978539 47.457977,113.821449 44.232796,115.655777 
z"/>
<path fill="#484845" opacity="1.000000" stroke="none" 
	d="
M159.269409,179.814987 
	C161.069992,177.563873 163.201752,175.282822 165.678436,173.007843 
	C163.882446,175.270966 161.741531,177.528000 159.269409,179.814987 
z"/>
<path fill="#4D4D49" opacity="1.000000" stroke="none" 
	d="
M107.935684,62.589050 
	C105.843788,62.709198 103.620361,62.476738 100.530899,62.153728 
	C101.630966,60.494038 102.449356,59.259315 103.613739,58.000526 
	C101.811287,62.491791 107.315102,60.101322 107.935684,62.589050 
z"/>
<path fill="#52524E" opacity="1.000000" stroke="none" 
	d="
M106.889832,235.641541 
	C106.670235,233.005051 106.720009,230.070969 107.094345,226.975967 
	C107.332336,229.658020 107.245766,232.500992 106.889832,235.641541 
z"/>
<path fill="#484845" opacity="1.000000" stroke="none" 
	d="
M185.242493,153.391754 
	C185.977631,153.176758 187.364487,152.384705 188.212128,152.772186 
	C189.954575,153.568695 191.408524,154.996323 193.021759,156.501221 
	C190.591553,155.675049 188.120834,154.511856 185.242493,153.391754 
z"/>
<path fill="#52524E" opacity="1.000000" stroke="none" 
	d="
M105.071320,251.780045 
	C105.040176,249.470749 105.313911,246.975845 105.855408,244.229706 
	C105.874184,246.517120 105.625191,249.055786 105.071320,251.780045 
z"/>
<path fill="#4D4D4A" opacity="1.000000" stroke="none" 
	d="
M244.996613,57.672707 
	C245.094772,55.356201 245.415131,52.745419 246.034149,49.976135 
	C245.961456,52.337902 245.590134,54.858166 244.996613,57.672707 
z"/>
<path fill="#63635F" opacity="1.000000" stroke="none" 
	d="
M89.335373,229.010239 
	C90.284874,228.134552 91.605263,227.326614 93.947037,225.893661 
	C93.947037,228.782349 93.947037,230.154602 93.775749,231.940018 
	C92.101891,231.503250 93.880219,226.748352 89.335373,229.010239 
z"/>
<path fill="#4D4D49" opacity="1.000000" stroke="none" 
	d="
M188.574707,33.837532 
	C186.608902,33.496239 184.804092,32.829296 182.634064,32.138176 
	C185.652710,29.160898 186.387131,29.319651 188.574707,33.837532 
z"/>
<path fill="#4D4D49" opacity="1.000000" stroke="none" 
	d="
M116.724709,66.384247 
	C114.741531,66.717194 112.326912,66.885071 109.880219,66.670143 
	C111.996521,66.264618 114.144897,66.241905 116.724709,66.384247 
z"/>
<path fill="#4A4A47" opacity="1.000000" stroke="none" 
	d="
M47.502914,104.823891 
	C46.512928,106.845833 45.191750,108.934692 43.531559,111.049866 
	C44.518944,109.014397 45.845333,106.952606 47.502914,104.823891 
z"/>
<path fill="#3A3A38" opacity="1.000000" stroke="none" 
	d="
M53.562340,239.905487 
	C54.186398,240.370377 54.480057,240.912460 54.889793,241.740479 
	C53.542439,242.371658 52.079002,242.716919 50.323120,243.027252 
	C50.030670,242.992340 50.062298,242.994217 50.062294,242.994217 
	C51.118843,241.990372 52.175396,240.986526 53.562340,239.905487 
z"/>
<path fill="#C2C2BB" opacity="1.000000" stroke="none" 
	d="
M89.569733,76.109398 
	C89.800888,75.210114 90.401146,74.344719 91.143219,73.274857 
	C92.683121,74.700729 93.939491,75.864059 95.316284,77.361549 
	C93.604088,77.178230 91.771454,76.660759 89.569733,76.109398 
z"/>
<path fill="#4A4A47" opacity="1.000000" stroke="none" 
	d="
M55.590599,95.938675 
	C54.571499,97.609886 53.226219,99.348320 51.539803,101.094917 
	C52.553921,99.404022 53.909168,97.704956 55.590599,95.938675 
z"/>
<path fill="#4A4A47" opacity="1.000000" stroke="none" 
	d="
M60.195618,104.629395 
	C61.386688,103.090942 62.902126,101.550903 64.760399,100.038116 
	C63.575485,101.586189 62.047733,103.107002 60.195618,104.629395 
z"/>
<path fill="#484845" opacity="1.000000" stroke="none" 
	d="
M172.340851,166.965942 
	C173.411865,165.335083 174.809174,163.645615 176.546509,161.947327 
	C175.480072,163.594772 174.073593,165.251038 172.340851,166.965942 
z"/>
<path fill="#4A4A47" opacity="1.000000" stroke="none" 
	d="
M61.189697,33.460922 
	C59.202057,32.833580 57.095184,31.888552 54.945023,30.604179 
	C56.957977,31.224304 59.014221,32.183769 61.189697,33.460922 
z"/>
<path fill="#4D4D49" opacity="1.000000" stroke="none" 
	d="
M116.448349,42.092506 
	C117.136993,40.460976 118.141655,38.731377 119.483261,36.963913 
	C118.801598,38.615505 117.782982,40.304966 116.448349,42.092506 
z"/>
<path fill="#4D4D49" opacity="1.000000" stroke="none" 
	d="
M166.469116,55.829369 
	C165.792236,57.454330 164.812241,59.213501 163.493835,61.018623 
	C164.158966,59.364243 165.162491,57.663910 166.469116,55.829369 
z"/>
<path fill="#494946" opacity="1.000000" stroke="none" 
	d="
M56.724815,175.149506 
	C55.541279,176.428101 54.018208,177.690872 52.147499,178.871063 
	C53.328335,177.570206 54.856804,176.351944 56.724815,175.149506 
z"/>
<path fill="#484845" opacity="1.000000" stroke="none" 
	d="
M214.161835,161.525482 
	C212.790741,160.876862 211.356171,159.904266 209.913300,158.588806 
	C211.302795,159.231155 212.700577,160.216339 214.161835,161.525482 
z"/>
<path fill="#52524E" opacity="1.000000" stroke="none" 
	d="
M102.874580,258.712097 
	C102.963303,257.307068 103.319183,255.672104 103.949203,253.912628 
	C103.862816,255.352783 103.502274,256.917450 102.874580,258.712097 
z"/>
<path fill="#4D4D49" opacity="1.000000" stroke="none" 
	d="
M119.561554,20.916435 
	C118.898163,22.278763 117.907143,23.680967 116.579094,25.091536 
	C117.239349,23.718704 118.236626,22.337507 119.561554,20.916435 
z"/>
<path fill="#494946" opacity="1.000000" stroke="none" 
	d="
M76.213860,172.657227 
	C77.402069,171.714096 78.931473,170.852829 80.814209,170.051605 
	C79.630043,170.987442 78.092552,171.863266 76.213860,172.657227 
z"/>
<path fill="#4A4A47" opacity="1.000000" stroke="none" 
	d="
M71.031387,39.597626 
	C69.759575,39.234333 68.372635,38.566929 66.949936,37.560150 
	C68.248207,37.911690 69.582237,38.602600 71.031387,39.597626 
z"/>
<path fill="#4D4D49" opacity="1.000000" stroke="none" 
	d="
M233.277283,53.704952 
	C233.063019,54.983772 232.584915,56.462730 231.777084,58.044033 
	C231.969391,56.732616 232.491409,55.318855 233.277283,53.704952 
z"/>
<path fill="#4D4D49" opacity="1.000000" stroke="none" 
	d="
M181.669907,55.259033 
	C181.877853,53.996376 182.353394,52.537399 183.144348,50.956135 
	C182.952332,52.243469 182.444916,53.653091 181.669907,55.259033 
z"/>
<path fill="#4D4D4A" opacity="1.000000" stroke="none" 
	d="
M238.468140,76.096619 
	C238.923859,74.871513 239.689255,73.522690 240.686005,72.364677 
	C240.204193,73.694626 239.490997,74.833763 238.468140,76.096619 
z"/>
<path fill="#4A4A47" opacity="1.000000" stroke="none" 
	d="
M108.590683,33.923065 
	C108.250084,34.918625 107.597046,35.985023 106.609169,37.077782 
	C106.942307,36.067394 107.610268,35.030655 108.590683,33.923065 
z"/>
<path fill="#4A4A47" opacity="1.000000" stroke="none" 
	d="
M103.625000,39.971016 
	C103.247734,40.944836 102.558289,41.989017 101.535866,43.056892 
	C101.906197,42.067516 102.609512,41.054447 103.625000,39.971016 
z"/>
<path fill="#3A3A38" opacity="1.000000" stroke="none" 
	d="
M89.740723,215.163086 
	C89.205254,216.076508 88.350624,217.024048 87.151855,217.930511 
	C87.679001,216.992004 88.550278,216.094589 89.740723,215.163086 
z"/>
<path fill="#484845" opacity="1.000000" stroke="none" 
	d="
M227.018433,173.641785 
	C226.036758,173.228821 224.992035,172.500366 223.950333,171.427948 
	C224.954041,171.831406 225.954712,172.578842 227.018433,173.641785 
z"/>
<path fill="#494946" opacity="1.000000" stroke="none" 
	d="
M61.775307,171.252136 
	C61.214546,172.173477 60.333832,173.091934 59.115021,173.929016 
	C59.669735,172.981522 60.562546,172.115387 61.775307,171.252136 
z"/>
<path fill="#3A3A38" opacity="1.000000" stroke="none" 
	d="
M83.762184,220.207092 
	C83.201012,221.107285 82.321602,222.035828 81.097870,222.909363 
	C81.650345,221.981400 82.547142,221.108429 83.762184,220.207092 
z"/>
<path fill="#4A4A47" opacity="1.000000" stroke="none" 
	d="
M75.893456,58.434914 
	C76.891487,58.807514 77.959511,59.497997 79.047958,60.530514 
	C78.033409,60.165966 76.998428,59.459385 75.893456,58.434914 
z"/>
<path fill="#4A4A47" opacity="1.000000" stroke="none" 
	d="
M76.643829,70.998978 
	C76.249290,71.976677 75.541054,73.021347 74.494179,74.074295 
	C74.880394,73.077026 75.605255,72.071495 76.643829,70.998978 
z"/>
<path fill="#484845" opacity="1.000000" stroke="none" 
	d="
M206.017532,154.636108 
	C205.035843,154.240051 203.996262,153.526398 202.942230,152.474869 
	C203.938400,152.864166 204.949036,153.591339 206.017532,154.636108 
z"/>
<path fill="#484845" opacity="1.000000" stroke="none" 
	d="
M211.460388,121.126144 
	C211.746658,120.150612 212.330231,119.063911 213.237000,117.916779 
	C212.959366,118.909218 212.358521,119.962090 211.460388,121.126144 
z"/>
<path fill="#4A4A47" opacity="1.000000" stroke="none" 
	d="
M97.607849,46.943619 
	C97.236038,47.933060 96.551498,48.989056 95.529861,50.061634 
	C95.893555,49.055534 96.594337,48.032856 97.607849,46.943619 
z"/>
<path fill="#4A4A47" opacity="1.000000" stroke="none" 
	d="
M66.518509,82.837143 
	C66.195831,83.847542 65.559975,84.939606 64.585548,86.063187 
	C64.899757,85.036079 65.552544,83.977448 66.518509,82.837143 
z"/>
<path fill="#4A4A47" opacity="1.000000" stroke="none" 
	d="
M84.098358,48.559631 
	C83.122932,48.291103 82.037857,47.725319 80.893021,46.840363 
	C81.885078,47.101582 82.936897,47.681976 84.098358,48.559631 
z"/>
<path fill="#3A3A38" opacity="1.000000" stroke="none" 
	d="
M57.282715,241.938858 
	C57.717171,241.216858 58.463455,240.535461 59.543652,239.895035 
	C59.116558,240.617157 58.355549,241.298309 57.282715,241.938858 
z"/>
<path fill="#4A4A47" opacity="1.000000" stroke="none" 
	d="
M81.372208,63.293602 
	C81.515991,63.949978 81.709030,65.016457 81.579338,66.103798 
	C81.311562,65.317673 81.366508,64.510689 81.372208,63.293602 
z"/>
<path fill="#4A4A47" opacity="1.000000" stroke="none" 
	d="
M64.020859,48.327976 
	C64.649757,48.397854 65.350388,48.764072 66.068604,49.454056 
	C65.421654,49.393322 64.757126,49.008820 64.020859,48.327976 
z"/>
<path fill="#4D4D49" opacity="1.000000" stroke="none" 
	d="
M106.437958,55.117920 
	C106.490791,54.464573 106.848938,53.738125 107.538330,52.977806 
	C107.494141,53.644226 107.118706,54.344524 106.437958,55.117920 
z"/>
<path fill="#4D4D49" opacity="1.000000" stroke="none" 
	d="
M168.484558,52.792412 
	C168.478516,53.473145 168.169693,54.237328 167.528137,55.040916 
	C167.524200,54.345501 167.852982,53.610680 168.484558,52.792412 
z"/>
<path fill="#4D4D49" opacity="1.000000" stroke="none" 
	d="
M230.515533,59.827488 
	C230.481064,60.502281 230.149170,61.262558 229.477341,62.049503 
	C229.497650,61.355110 229.857880,60.634041 230.515533,59.827488 
z"/>
<path fill="#63635F" opacity="1.000000" stroke="none" 
	d="
M94.541260,252.030319 
	C95.124298,252.421387 95.539291,253.086136 95.808731,254.036652 
	C95.233192,253.649628 94.803207,252.976822 94.541260,252.030319 
z"/>
<path fill="#A1A19B" opacity="1.000000" stroke="none" 
	d="
M96.717712,262.147461 
	C97.226593,262.541443 97.533905,263.075989 97.679115,263.906433 
	C97.183388,263.564240 96.849762,262.926117 96.717712,262.147461 
z"/>
<path fill="#4D4D49" opacity="1.000000" stroke="none" 
	d="
M113.413773,46.088562 
	C113.461983,45.444454 113.810844,44.723885 114.484909,43.963005 
	C114.444885,44.619160 114.079666,45.315632 113.413773,46.088562 
z"/>
<path fill="#4D4D4A" opacity="1.000000" stroke="none" 
	d="
M229.404816,94.065765 
	C229.383820,93.447701 229.640701,92.716324 230.205902,91.913940 
	C230.237030,92.546112 229.959869,93.249283 229.404816,94.065765 
z"/>
<path fill="#4A4A47" opacity="1.000000" stroke="none" 
	d="
M77.085648,43.594864 
	C76.427551,43.589207 75.686020,43.291447 74.910934,42.670105 
	C75.585655,42.665268 76.293938,42.984016 77.085648,43.594864 
z"/>
<path fill="#494946" opacity="1.000000" stroke="none" 
	d="
M75.681793,157.015350 
	C75.572357,157.659668 75.158546,158.342621 74.420418,159.039062 
	C74.523209,158.386383 74.950310,157.720184 75.681793,157.015350 
z"/>
<path fill="#4A4A47" opacity="1.000000" stroke="none" 
	d="
M73.241806,92.849808 
	C73.403885,92.247772 73.870186,91.612244 74.657333,90.982018 
	C74.500801,91.596992 74.023415,92.206657 73.241806,92.849808 
z"/>
<path fill="#4A4A47" opacity="1.000000" stroke="none" 
	d="
M61.650169,88.977455 
	C61.554874,89.627090 61.156712,90.329826 60.430870,91.044571 
	C60.517895,90.381248 60.932598,89.705902 61.650169,88.977455 
z"/>
<path fill="#4D4D4A" opacity="1.000000" stroke="none" 
	d="
M219.314011,109.964874 
	C219.337769,109.346062 219.657135,108.662689 220.269913,107.915131 
	C220.245422,108.534073 219.927521,109.217194 219.314011,109.964874 
z"/>
<path fill="#4D4D4A" opacity="1.000000" stroke="none" 
	d="
M232.599411,88.244324 
	C232.574341,87.607841 232.808502,86.809006 233.380371,85.951569 
	C233.431610,86.622627 233.145126,87.352303 232.599411,88.244324 
z"/>
<path fill="#4D4D4A" opacity="1.000000" stroke="none" 
	d="
M234.586060,84.231926 
	C234.565674,83.600876 234.817108,82.817375 235.401230,81.967369 
	C235.441895,82.627068 235.149887,83.353279 234.586060,84.231926 
z"/>
<path fill="#4A4A47" opacity="1.000000" stroke="none" 
	d="
M49.894783,37.420753 
	C50.561695,37.448914 51.300953,37.778973 52.063309,38.442230 
	C51.379982,38.424500 50.673553,38.073574 49.894783,37.420753 
z"/>
<path fill="#4D4D4A" opacity="1.000000" stroke="none" 
	d="
M236.544556,80.206360 
	C236.501099,79.567169 236.748352,78.805748 237.310394,77.958473 
	C237.361877,78.609795 237.098587,79.346962 236.544556,80.206360 
z"/>
<path fill="#484845" opacity="1.000000" stroke="none" 
	d="
M202.371918,133.051071 
	C202.431519,132.407043 202.786072,131.693451 203.463730,130.949341 
	C203.413513,131.606400 203.040207,132.293961 202.371918,133.051071 
z"/>
<path fill="#484845" opacity="1.000000" stroke="none" 
	d="
M196.071625,145.624817 
	C195.409027,145.424957 194.708206,144.918442 194.106995,144.062424 
	C194.815536,144.248001 195.424469,144.783066 196.071625,145.624817 
z"/>
<path fill="#484845" opacity="1.000000" stroke="none" 
	d="
M194.940170,158.377533 
	C195.605011,158.375153 196.336990,158.668854 197.102478,159.280075 
	C196.426407,159.289597 195.716858,158.981598 194.940170,158.377533 
z"/>
<path fill="#494946" opacity="1.000000" stroke="none" 
	d="
M92.211456,163.677750 
	C92.633331,163.567368 93.414299,163.490356 94.085381,163.725174 
	C93.507179,163.928375 93.038857,163.819748 92.211456,163.677750 
z"/>
<path fill="#4D4D49" opacity="1.000000" stroke="none" 
	d="
M177.563080,38.871201 
	C177.605804,39.543652 177.347549,40.283127 176.781967,41.091270 
	C176.737137,40.419369 176.999619,39.678799 177.563080,38.871201 
z"/>
<path fill="#4A4A47" opacity="1.000000" stroke="none" 
	d="
M66.180305,36.504669 
	C65.519623,36.522987 64.746735,36.256714 63.928864,35.657799 
	C64.611954,35.623466 65.340027,35.921772 66.180305,36.504669 
z"/>
<path fill="#494946" opacity="1.000000" stroke="none" 
	d="
M83.121887,169.414032 
	C83.416878,168.856415 83.999084,168.402390 84.867599,168.025269 
	C84.572304,168.573990 83.990692,169.045792 83.121887,169.414032 
z"/>
<path fill="#4D4D49" opacity="1.000000" stroke="none" 
	d="
M120.493111,36.166435 
	C120.498489,35.512981 120.803810,34.761868 121.438499,33.960320 
	C121.442932,34.629513 121.117989,35.349144 120.493111,36.166435 
z"/>
<path fill="#4D4D49" opacity="1.000000" stroke="none" 
	d="
M109.571365,64.849640 
	C108.980042,64.609077 108.487892,64.064575 108.025665,63.226372 
	C108.593910,63.470348 109.132225,64.008026 109.571365,64.849640 
z"/>
<path fill="#4A4A47" opacity="1.000000" stroke="none" 
	d="
M53.962734,40.360733 
	C54.628353,40.416363 55.344898,40.777367 56.084435,41.462448 
	C55.409508,41.413052 54.711586,41.039581 53.962734,40.360733 
z"/>
<path fill="#3A3A38" opacity="1.000000" stroke="none" 
	d="
M50.028038,242.977722 
	C49.798615,243.169113 49.571819,243.375122 49.345024,243.581131 
	C49.579548,243.502762 49.814068,243.424393 50.055443,243.170120 
	C50.062298,242.994217 50.030670,242.992340 50.028038,242.977722 
z"/>
<path fill="#090908" opacity="1.000000" stroke="none" 
	d="
M229.284821,176.302124 
	C228.612030,176.612213 227.937683,176.500351 227.190323,176.022461 
	C227.839294,175.730988 228.561295,175.805573 229.284821,176.302124 
z"/>
<path fill="#090908" opacity="1.000000" stroke="none" 
	d="
M230.051010,176.538818 
	C229.896622,176.831314 229.543320,176.931580 229.253967,176.761353 
	C229.495987,176.442764 229.674042,176.394669 230.051010,176.538818 
z"/>
<path fill="#F9F9EF" opacity="1.000000" stroke="none" 
	d="
M109.692810,195.489471 
	C110.116684,180.742126 110.508827,166.441833 111.028244,152.146179 
	C111.091614,150.402023 111.289078,148.166595 112.354431,147.032593 
	C121.770668,137.009583 131.397217,127.184113 141.206833,117.046806 
	C150.678467,125.077690 160.396515,133.317505 170.391388,141.792023 
	C169.517242,142.865753 168.819443,143.964142 167.896896,144.820328 
	C149.869873,161.550354 131.836395,178.273697 113.709984,194.895599 
	C112.810760,195.720184 111.056084,195.611893 109.692810,195.489471 
z"/>
<path fill="#F8F8EF" opacity="1.000000" stroke="none" 
	d="
M192.603485,116.604721 
	C188.678055,121.347435 184.968033,125.807274 180.974503,130.607925 
	C171.322311,121.980835 161.897186,113.635605 152.636353,105.111862 
	C151.979568,104.507347 152.006424,102.245934 152.602646,101.336777 
	C158.074921,92.992165 163.702194,84.747482 169.410446,76.561638 
	C170.070862,75.614555 171.494400,74.635452 172.571243,74.627464 
	C189.018204,74.505356 205.466339,74.542480 222.222733,74.542480 
	C213.803604,88.785713 203.829514,102.905319 192.603485,116.604721 
z"/>
<path fill="#EFEFE8" opacity="1.000000" stroke="none" 
	d="
M117.887245,96.021225 
	C121.311745,99.207848 124.466324,102.148407 128.136063,105.569168 
	C122.866386,111.264786 117.763496,116.780144 111.859604,123.161247 
	C111.859604,111.823059 111.859604,101.704185 111.859604,90.554550 
	C114.257668,92.728912 115.937492,94.252037 117.887245,96.021225 
z"/>
<path fill="#E9E9E2" opacity="1.000000" stroke="none" 
	d="
M128.930725,76.976074 
	C136.651718,76.487572 143.940720,76.043159 152.983780,75.491798 
	C147.898987,81.940048 143.686874,87.281609 139.134445,93.054764 
	C133.326538,88.072563 127.881943,83.402016 121.328979,77.780678 
	C124.691322,77.424034 126.595016,77.222107 128.930725,76.976074 
z"/>
</svg>