<svg version="1.1" id="Layer_1" xmlns="http://www.w3.org/2000/svg" xmlns:xlink="http://www.w3.org/1999/xlink" x="0px" y="0px"
	 width="100%" viewBox="0 0 288 288" enable-background="new 0 0 288 288" xml:space="preserve">
<path fill="#222" opacity="1.000000" stroke="none"
	d="
M202.076965,133.120636
	C199.525269,136.452209 196.973587,139.783783 194.214630,143.763641
	C194.708206,144.918442 195.409027,145.424957 196.109863,145.931488
	C198.256104,147.819641 200.402328,149.707794 202.752625,152.204346
	C203.996262,153.526398 205.035843,154.240051 206.075409,154.953690
	C207.224289,155.881439 208.373154,156.809189 209.721817,158.334290
	C211.356171,159.904266 212.790741,160.876862 214.225327,161.849457
	C217.357239,164.734924 220.489151,167.620392 223.784195,171.138885
	C224.992035,172.500366 226.036758,173.228821 227.081467,173.957291
	C227.287567,174.322815 227.493668,174.688339 227.083832,175.436127
	C225.214264,175.613861 223.960632,175.409348 222.707001,175.204849
	C222.348495,175.061752 221.989975,174.918655 221.330109,174.282471
	C214.305161,169.890732 207.581589,165.992065 200.858017,162.093399
	C199.760773,161.422424 198.663528,160.751450 197.317627,159.521515
	C196.336990,158.668854 195.605011,158.375153 194.873032,158.081451
	C194.402298,157.795624 193.931549,157.509781 193.221008,156.694061
	C191.408524,154.996323 189.954575,153.568695 188.212128,152.772186
	C187.364487,152.384705 185.977631,153.176758 184.834885,153.434845
	C182.375137,156.152725 179.915390,158.870605 176.831055,161.772308
	C174.809174,163.645615 173.411865,165.335083 172.014572,167.024551
	C170.207520,168.914291 168.400482,170.804016 165.963470,172.847748
	C163.201752,175.282822 161.069992,177.563873 158.938217,179.844925
	C143.577942,192.219116 128.348007,204.761703 112.753616,216.833466
	C109.407188,219.423965 107.135368,221.698044 107.195312,226.569839
	C106.720009,230.070969 106.670235,233.005051 106.620453,235.939148
	C106.507034,238.352203 106.393616,240.765244 105.933914,243.829620
	C105.313911,246.975845 105.040176,249.470749 104.766434,251.965652
	C104.680916,252.382217 104.595406,252.798782 104.092476,253.626251
	C103.319183,255.672104 102.963303,257.307068 102.607430,258.942017
	C102.093498,261.694214 101.579567,264.446381 100.611465,267.549591
	C99.468056,267.920380 98.778816,267.940155 98.089584,267.959961
	C97.954437,266.955048 97.819283,265.950165 97.762672,264.277893
	C97.533905,263.075989 97.226593,262.541443 96.919281,262.006897
	C96.546120,259.696350 96.172966,257.385803 95.877045,254.413055
	C95.539291,253.086136 95.124298,252.421387 94.709305,251.756622
	C94.595741,251.362534 94.482162,250.968460 94.586441,249.934799
	C94.436951,245.188599 94.069595,241.081985 93.702240,236.975357
	C93.650261,235.691025 93.598274,234.406708 93.746666,232.324615
	C93.947037,230.154602 93.947037,228.782349 93.947037,225.893661
	C91.605263,227.326614 90.284874,228.134552 88.964485,228.942505
	C88.637695,229.065491 88.310898,229.188477 87.338943,229.210281
	C80.434204,231.962021 74.174622,234.814941 67.915039,237.667862
	C65.497551,238.438644 63.080059,239.209427 59.936153,239.917145
	C58.463455,240.535461 57.717171,241.216858 56.970886,241.898254
	C56.534454,241.986481 56.098022,242.074707 55.217651,241.808746
	C54.480057,240.912460 54.186398,240.370377 53.892746,239.828293
	C54.266541,239.467560 54.640331,239.106827 55.670425,238.826996
	C62.431995,235.469040 68.622330,232.169250 74.596626,228.516159
	C76.699150,227.230515 78.272446,225.079376 80.087402,223.323441
	C80.087402,223.323441 80.326492,222.955429 80.884346,222.959900
	C82.321602,222.035828 83.201012,221.107285 84.080414,220.178741
	C84.801300,219.490005 85.522194,218.801270 86.869537,218.042053
	C88.350624,217.024048 89.205254,216.076508 90.059891,215.128967
	C90.933243,214.019485 91.806602,212.910004 93.172546,211.287628
	C93.454155,207.184982 93.243187,203.595215 93.032219,200.005463
	C92.973549,195.971649 92.914879,191.937851 93.264374,187.174011
	C93.668701,182.157333 93.664871,177.870697 93.661041,173.584045
	C93.718018,170.692169 93.774994,167.800293 94.013611,164.160889
	C93.414299,163.490356 92.633331,163.567368 91.852371,163.644363
	C89.838005,165.068039 87.823639,166.491714 85.195282,167.931870
	C83.999084,168.402390 83.416878,168.856415 82.834679,169.310455
	C82.478256,169.520157 82.121834,169.729858 81.113144,169.965561
	C78.931473,170.852829 77.402069,171.714096 75.872665,172.575378
	C75.514702,172.737732 75.156738,172.900085 74.123466,173.031250
	C67.544655,175.397018 61.638855,177.788345 55.739056,180.194397
	C53.988659,180.908218 52.213219,181.781189 51.796646,178.790237
	C51.796646,178.790237 51.996159,179.001221 52.245644,178.977432
	C54.018208,177.690872 55.541279,176.428101 57.064354,175.165344
	C57.462643,174.788727 57.860928,174.412094 58.856163,174.022919
	C60.333832,173.091934 61.214546,172.173477 62.095257,171.255020
	C65.912186,167.313156 69.729118,163.371292 74.145393,159.227493
	C75.158546,158.342621 75.572357,157.659668 75.986168,156.976730
	C81.582146,151.904510 87.178123,146.832291 93.311180,141.305786
	C94.096657,136.531158 94.345062,132.210815 94.593468,127.890480
	C94.678398,127.460106 94.763321,127.029739 95.037354,125.963928
	C95.295029,121.174156 95.363617,117.019814 95.432205,112.865471
	C95.639526,106.549957 95.846855,100.234444 96.182251,93.100601
	C96.404068,88.483986 96.497826,84.685699 96.591583,80.887421
	C96.406616,79.912544 96.221642,78.937660 95.616264,77.495087
	C93.939491,75.864059 92.683121,74.700729 91.143219,73.274857
	C90.401146,74.344719 89.800888,75.210114 89.200638,76.075516
	C84.651718,80.934608 80.102798,85.793701 74.945175,90.814751
	C73.870186,91.612244 73.403885,92.247772 72.937576,92.883301
	C70.516518,95.167168 68.095451,97.451035 65.045975,99.872879
	C62.902126,101.550903 61.386688,103.090942 59.871254,104.630981
	C57.849815,106.382530 55.828377,108.134079 53.138908,109.960320
	C49.607124,111.905746 46.743374,113.776474 43.879623,115.647202
	C43.594082,115.880379 43.308537,116.113556 42.442184,116.172363
	C41.563530,115.314621 41.265678,114.631256 40.967827,113.947884
	C41.552090,113.120087 42.136353,112.292282 43.295593,111.244019
	C45.191750,108.934692 46.512928,106.845833 47.834103,104.756973
	C48.775650,103.646904 49.717197,102.536835 51.269844,101.256760
	C53.226219,99.348320 54.571499,97.609886 55.916775,95.871445
	C57.131470,94.382477 58.346172,92.893509 60.159714,91.218552
	C61.156712,90.329826 61.554874,89.627090 61.953033,88.924355
	C62.557529,88.107864 63.162029,87.291382 64.345329,86.253281
	C65.559975,84.939606 66.195831,83.847542 66.831680,82.755486
	C69.091057,79.991730 71.350433,77.227974 74.221313,74.265121
	C75.541054,73.021347 76.249290,71.976677 76.957535,70.932007
	C78.212448,69.451752 79.467369,67.971504 81.312180,66.287094
	C81.709030,65.016457 81.515991,63.949978 81.322945,62.883499
	C80.684685,62.382942 80.046425,61.882381 79.217850,60.785152
	C77.959511,59.497997 76.891487,58.807514 75.823456,58.117027
	C72.724998,55.507542 69.626534,52.898056 66.289551,49.709427
	C65.350388,48.764072 64.649757,48.397854 63.949123,48.031639
	C61.462788,46.132069 58.976452,44.232498 56.275780,41.735649
	C55.344898,40.777367 54.628353,40.416363 53.911804,40.055355
	C53.430462,39.767082 52.949120,39.478809 52.253994,38.649788
	C51.300953,37.778973 50.561695,37.448914 49.822437,37.118855
	C48.688129,36.200298 47.553822,35.281738 46.288563,33.722069
	C45.892696,31.870918 45.627781,30.660881 45.282818,29.085230
	C48.347286,29.273058 50.913631,29.430357 53.479980,29.587654
	C53.827438,29.682188 54.174896,29.776722 54.755333,30.407389
	C57.095184,31.888552 59.202057,32.833580 61.308933,33.778610
	C62.025036,34.150177 62.741135,34.521744 63.715546,35.441879
	C64.746735,36.256714 65.519623,36.522987 66.292511,36.789261
	C66.292511,36.789261 66.680809,36.893429 66.833252,37.396477
	C68.372635,38.566929 69.759575,39.234333 71.146523,39.901741
	C72.236099,40.566902 73.325676,41.232067 74.679871,42.445457
	C75.686020,43.291447 76.427551,43.589207 77.169090,43.886967
	C78.247437,44.602428 79.325790,45.317886 80.678467,46.596439
	C82.037857,47.725319 83.122932,48.291103 84.208000,48.856888
	C86.603554,50.460022 88.999107,52.063160 91.581253,53.791164
	C92.656586,52.636734 93.635437,51.585892 95.240616,50.290047
	C96.551498,48.989056 97.236038,47.933060 97.920578,46.877064
	C98.845116,45.737759 99.769646,44.598454 101.281509,43.246178
	C102.558289,41.989017 103.247734,40.944836 103.937172,39.900650
	C104.552505,39.090843 105.167839,38.281040 106.363586,37.261330
	C107.597046,35.985023 108.250084,34.918625 108.903130,33.852222
	C111.175171,31.077053 113.447220,28.301882 116.317688,25.304941
	C117.907143,23.680967 118.898163,22.278763 119.889191,20.876560
	C119.889191,20.876562 119.989578,21.002260 120.368637,20.995716
	C125.018936,20.153175 125.761322,22.491495 124.853294,25.849516
	C124.175476,28.356195 123.052307,30.742451 122.127457,33.182335
	C122.127457,33.182335 122.046425,33.594921 121.577774,33.802841
	C120.803810,34.761868 120.498489,35.512981 120.193176,36.264095
	C120.193176,36.264095 120.108849,36.652622 119.627579,36.827202
	C118.141655,38.731377 117.136993,40.460976 116.132339,42.190578
	C115.825951,42.642715 115.519569,43.094849 114.686447,43.775146
	C113.810844,44.723885 113.461983,45.444454 113.113113,46.165020
	C111.528198,48.275333 109.943283,50.385651 107.782730,52.753822
	C106.848938,53.738125 106.490791,54.464573 106.132645,55.191025
	C105.569542,56.002171 105.006432,56.813316 103.855530,57.824532
	C102.449356,59.259315 101.630966,60.494038 100.530899,62.153728
	C103.620361,62.476738 105.843788,62.709198 108.067215,62.941658
	C108.067215,62.941658 108.005486,63.002529 108.000610,63.261303
	C108.487892,64.064575 108.980042,64.609077 109.472191,65.153580
	C109.566948,65.331894 109.661705,65.510208 109.834381,66.370743
	C112.326912,66.885071 114.741531,66.717194 117.156151,66.549316
	C118.191483,66.424644 119.226814,66.299965 120.942841,66.459106
	C126.140198,66.065292 130.656860,65.387665 135.173508,64.710037
	C137.504471,64.537407 139.835434,64.364769 142.910522,64.483810
	C149.493561,64.091270 155.332458,63.407063 161.171371,62.722851
	C161.685760,62.329502 162.200165,61.936153 163.273407,61.257736
	C164.812241,59.213501 165.792236,57.454330 166.772217,55.695160
	C166.772232,55.695164 166.883957,55.319000 167.372421,55.160255
	C168.169693,54.237328 168.478516,53.473145 168.787338,52.708961
	C171.179214,49.020115 173.571091,45.331268 176.526123,41.332512
	C177.347549,40.283127 177.605804,39.543652 177.864075,38.804176
	C179.162979,36.721321 180.461868,34.638462 182.380035,32.358978
	C184.804092,32.829296 186.608902,33.496239 188.413696,34.163185
	C188.467880,34.833511 188.522064,35.503834 188.159821,36.645538
	C186.565521,41.172974 185.387680,45.229031 184.209839,49.285088
	C184.072952,49.644592 183.936066,50.004093 183.314056,50.721008
	C182.353394,52.537399 181.877853,53.996376 181.402313,55.455353
	C181.273834,55.798561 181.145355,56.141769 180.466293,56.758438
	C179.160828,58.706444 178.405960,60.380993 177.242203,62.962563
	C179.977402,62.962563 181.586395,62.962055 183.195389,62.962643
	C194.506073,62.966770 205.816910,63.001595 217.127335,62.949757
	C219.395691,62.939362 221.662521,62.599495 223.930054,62.411545
	C225.384003,62.377365 226.837936,62.343182 229.054565,62.165916
	C230.149170,61.262558 230.481064,60.502281 230.812958,59.742004
	C230.922745,59.373863 231.032516,59.005722 231.624542,58.289635
	C232.584915,56.462730 233.063019,54.983772 233.541138,53.504807
	C233.830338,52.916267 234.119553,52.327732 234.882523,51.322716
	C236.313446,47.615757 237.270599,44.325279 238.227768,41.034801
	C238.272995,40.310570 238.318222,39.586342 238.787079,38.377159
	C240.293945,36.262806 241.377167,34.633400 242.460388,33.003994
	C243.488022,34.541786 244.503448,36.088036 245.555664,37.608829
	C245.725861,37.854805 246.059494,37.987698 246.317566,38.172859
	C246.396133,41.764378 246.474701,45.355888 246.144379,49.541019
	C245.415131,52.745419 245.094772,55.356201 244.774414,57.966984
	C244.762146,58.396217 244.749878,58.825455 244.252747,59.646023
	C241.982590,63.178101 244.077469,63.496571 246.442154,63.988487
	C252.298370,65.206718 258.114838,66.616104 263.883087,68.170273
	C263.818909,68.391861 263.972290,68.827011 263.972290,68.827011
	C256.562103,70.066093 249.151932,71.305176 241.098206,72.359062
	C239.689255,73.522690 238.923859,74.871513 238.158463,76.220337
	C238.072372,76.599152 237.986298,76.977959 237.447906,77.700546
	C236.748352,78.805748 236.501099,79.567169 236.253830,80.328590
	C236.177048,80.692650 236.100266,81.056717 235.546021,81.727325
	C234.817108,82.817375 234.565674,83.600876 234.314224,84.384369
	C234.233948,84.744186 234.153671,85.104012 233.558029,85.737000
	C232.808502,86.809006 232.574341,87.607841 232.340179,88.406677
	C231.852066,89.370377 231.363968,90.334076 230.386734,91.641365
	C229.640701,92.716324 229.383820,93.447701 229.126923,94.179070
	C226.437012,98.569756 223.747101,102.960442 220.516846,107.665222
	C219.657135,108.662689 219.337769,109.346062 219.018402,110.029442
	C217.368149,112.482918 215.717911,114.936401 213.490723,117.683548
	C212.330231,119.063911 211.746658,120.150612 211.163086,121.237320
	C208.871826,124.313377 206.580597,127.389442 203.714996,130.722687
	C202.786072,131.693451 202.431519,132.407043 202.076965,133.120636
M109.699730,195.937958
	C111.056084,195.611893 112.810760,195.720184 113.709984,194.895599
	C131.836395,178.273697 149.869873,161.550354 167.896896,144.820328
	C168.819443,143.964142 169.517242,142.865753 170.391388,141.792023
	C160.396515,133.317505 150.678467,125.077690 141.206833,117.046806
	C131.397217,127.184113 121.770668,137.009583 112.354431,147.032593
	C111.289078,148.166595 111.091614,150.402023 111.028244,152.146179
	C110.508827,166.441833 110.116684,180.742126 109.699730,195.937958
M192.818893,116.321854
	C203.829514,102.905319 213.803604,88.785713 222.222733,74.542480
	C205.466339,74.542480 189.018204,74.505356 172.571243,74.627464
	C171.494400,74.635452 170.070862,75.614555 169.410446,76.561638
	C163.702194,84.747482 158.074921,92.992165 152.602646,101.336777
	C152.006424,102.245934 151.979568,104.507347 152.636353,105.111862
	C161.897186,113.635605 171.322311,121.980835 180.974503,130.607925
	C184.968033,125.807274 188.678055,121.347435 192.818893,116.321854
M117.617325,95.775162
	C115.937492,94.252037 114.257668,92.728912 111.859604,90.554550
	C111.859604,101.704185 111.859604,111.823059 111.859604,123.161247
	C117.763496,116.780144 122.866386,111.264786 128.136063,105.569168
	C124.466324,102.148407 121.311745,99.207848 117.617325,95.775162
M128.498718,77.020172
	C126.595016,77.222107 124.691322,77.424034 121.328979,77.780678
	C127.881943,83.402016 133.326538,88.072563 139.134445,93.054764
	C143.686874,87.281609 147.898987,81.940048 152.983780,75.491798
	C143.940720,76.043159 136.651718,76.487572 128.498718,77.020172
z"/>
<path fill="#222" opacity="1.000000" stroke="none"
	d="
M223.606262,62.171772
	C221.662521,62.599495 219.395691,62.939362 217.127335,62.949757
	C205.816910,63.001595 194.506073,62.966770 183.195389,62.962643
	C181.586395,62.962055 179.977402,62.962563 177.242203,62.962563
	C178.405960,60.380993 179.160828,58.706444 180.261642,56.945847
	C180.340561,58.124172 180.073547,59.388542 179.536392,61.932003
	C194.407547,61.932003 208.845016,61.932003 223.606262,62.171772
z"/>
<path fill="#222" opacity="1.000000" stroke="none"
	d="
M51.444893,178.802979
	C52.213219,181.781189 53.988659,180.908218 55.739056,180.194397
	C61.638855,177.788345 67.544655,175.397018 73.830368,173.073456
	C66.119759,176.655823 58.047352,180.213165 49.920292,183.640976
	C47.790989,184.539062 45.492062,185.035004 42.779118,184.617737
	C45.550457,182.683716 48.321796,180.749710 51.444893,178.802979
z"/>
<path fill="#222" opacity="1.000000" stroke="none"
	d="
M263.947266,67.948677
	C258.114838,66.616104 252.298370,65.206718 246.442154,63.988487
	C244.077469,63.496571 241.982590,63.178101 244.096680,59.930099
	C245.003922,60.689571 245.456406,62.179516 246.180389,62.325813
	C252.814957,63.666470 259.496674,64.773895 266.529297,66.341568
	C265.911713,67.138763 264.929474,67.543716 263.947266,67.948677
z"/>
<path fill="#222" opacity="1.000000" stroke="none"
	d="
M200.974350,162.406647
	C207.581589,165.992065 214.305161,169.890732 221.097839,174.107330
	C214.474869,170.523468 207.782776,166.621689 200.974350,162.406647
z"/>
<path fill="#222" opacity="1.000000" stroke="none"
	d="
M122.447716,33.068066
	C123.052307,30.742451 124.175476,28.356195 124.853294,25.849516
	C125.761322,22.491495 125.018936,20.153175 120.312363,20.937878
	C121.641182,20.405430 123.881592,19.053667 125.036850,19.685623
	C126.214859,20.330027 127.135979,23.146128 126.733131,24.618349
	C125.933731,27.539759 124.146790,30.190939 122.447716,33.068066
z"/>
<path fill="#222" opacity="1.000000" stroke="none"
	d="
M68.290955,237.753952
	C74.174622,234.814941 80.434204,231.962021 87.076218,229.206604
	C81.194725,232.149414 74.930801,234.994720 68.290955,237.753952
z"/>
<path fill="#222" opacity="1.000000" stroke="none"
	d="
M160.722290,62.603638
	C155.332458,63.407063 149.493561,64.091270 143.351669,64.518692
	C148.790192,63.669415 154.531708,63.076920 160.722290,62.603638
z"/>
<path fill="#222" opacity="1.000000" stroke="none"
	d="
M246.493439,37.825157
	C246.059494,37.987698 245.725861,37.854805 245.555664,37.608829
	C244.503448,36.088036 243.488022,34.541786 242.460388,33.003994
	C241.377167,34.633400 240.293945,36.262806 238.903214,38.032211
	C238.491669,37.546230 238.081436,36.723335 238.335785,36.327824
	C239.537308,34.459480 240.855392,31.258568 242.251801,31.195692
	C245.952393,31.029062 246.522171,34.392403 246.493439,37.825157
z"/>
<path fill="#222" opacity="1.000000" stroke="none"
	d="
M263.883087,68.170273
	C264.929474,67.543716 265.911713,67.138763 266.933228,66.391457
	C269.794342,66.049110 272.616089,66.049110 275.437866,66.049110
	C275.507141,66.809685 275.576416,67.570259 275.645691,68.330833
	C271.891327,68.714607 268.136932,69.098389 264.177429,69.154587
	C263.972290,68.827011 263.818909,68.391861 263.883087,68.170273
z"/>
<path fill="#222" opacity="1.000000" stroke="none"
	d="
M222.806091,175.532562
	C223.960632,175.409348 225.214264,175.613861 226.822998,175.655823
	C227.178116,175.493286 227.170288,175.583267 227.216827,175.985886
	C227.937683,176.500351 228.612030,176.612213 229.286362,176.724060
	C229.286362,176.724060 229.163773,176.588730 229.176880,176.810272
	C229.543320,176.931580 229.896622,176.831314 230.249939,176.731064
	C232.156830,178.177231 234.063721,179.623398 235.970612,181.069565
	C235.644394,181.623642 235.318176,182.177704 234.991974,182.731781
	C230.963028,180.441284 226.934097,178.150787 222.806091,175.532562
z"/>
</svg>
