<?xml version="1.0" standalone="no"?>
<!DOCTYPE svg PUBLIC "-//W3C//DTD SVG 20010904//EN"
 "http://www.w3.org/TR/2001/REC-SVG-20010904/DTD/svg10.dtd">
<svg version="1.0" xmlns="http://www.w3.org/2000/svg"
 width="288.000000pt" height="288.000000pt" viewBox="0 0 288.000000 288.000000"
 preserveAspectRatio="xMidYMid meet">
<metadata>
Created by potrace 1.14, written by Peter Selinger 2001-2017
</metadata>
<g transform="translate(0.000000,288.000000) scale(0.100000,-0.100000)"
fill="#000000" stroke="none">
<path d="M1199 2683 c-13 -9 -29 -24 -35 -32 -7 -9 -22 -27 -34 -41 -12 -14
-39 -45 -59 -70 -43 -53 -83 -99 -131 -153 l-36 -39 -89 64 c-222 160 -385
235 -385 177 0 -13 51 -64 99 -99 37 -26 152 -120 161 -130 3 -3 31 -27 63
-54 31 -27 57 -54 57 -60 0 -6 -19 -31 -41 -56 -23 -25 -67 -76 -98 -115 -57
-71 -68 -84 -176 -205 -22 -25 -49 -58 -60 -74 -11 -16 -38 -50 -60 -75 -39
-44 -36 -46 15 -11 14 10 47 29 74 44 86 47 272 214 384 343 l53 61 29 -27 29
-26 -4 -160 c-3 -138 -6 -209 -19 -426 -2 -35 -24 -61 -126 -145 -19 -16 -57
-53 -85 -83 -67 -72 -133 -134 -153 -145 -10 -5 -19 -12 -22 -16 -3 -4 -25
-20 -50 -35 -39 -25 -77 -55 -68 -55 8 0 169 61 210 79 26 12 50 22 53 22 12
1 172 83 193 100 13 10 28 17 32 14 4 -3 6 -114 3 -247 l-4 -242 -37 -35 c-52
-48 -171 -137 -219 -163 -137 -77 -205 -119 -183 -113 41 10 43 10 105 30 33
10 62 19 65 20 3 1 16 7 30 13 84 39 236 99 241 96 4 -2 7 -41 8 -86 3 -102 7
-141 20 -193 18 -66 24 -107 25 -167 1 -70 13 -63 20 12 3 30 10 70 15 88 5
17 8 32 6 32 -2 0 2 15 10 34 15 35 21 76 30 196 11 148 14 162 32 176 10 7
23 14 30 14 6 0 13 3 15 8 2 4 55 46 118 93 64 47 122 92 130 100 8 8 28 24
44 37 80 62 236 210 374 356 l53 56 119 -80 c122 -82 155 -102 248 -151 30
-16 66 -37 80 -47 15 -11 38 -25 52 -31 23 -11 22 -10 -5 14 -16 15 -73 66
-125 114 -52 49 -111 101 -130 117 -19 16 -40 33 -46 39 -6 5 -28 26 -50 46
-73 66 -73 60 -7 141 72 90 160 208 199 268 16 25 33 50 37 55 22 29 98 165
127 230 36 80 40 83 110 86 25 1 52 6 60 10 17 8 76 19 139 25 49 4 68 14 30
15 -38 1 -76 7 -188 30 -85 17 -83 16 -72 37 6 10 13 41 17 68 17 123 8 196
-26 214 -24 13 -35 -5 -44 -68 -6 -43 -46 -154 -76 -207 -16 -28 -20 -30 -71
-28 -93 3 -426 4 -440 1 -20 -4 -17 8 20 87 70 147 80 216 33 223 -17 3 -28
-8 -51 -45 -17 -26 -34 -53 -39 -58 -5 -6 -11 -15 -13 -20 -7 -17 -121 -185
-128 -189 -8 -5 -110 -15 -223 -21 -43 -3 -90 -7 -105 -10 -16 -2 -59 -7 -97
-10 -38 -3 -73 -8 -78 -11 -4 -3 -16 8 -26 25 -11 20 -25 31 -39 31 -28 0 -40
20 -22 34 8 6 46 54 85 106 132 178 166 249 131 278 -10 9 -20 7 -38 -5z
m1021 -531 c0 -8 -201 -307 -232 -345 -13 -16 -32 -39 -43 -52 -12 -13 -45
-55 -75 -94 -30 -38 -60 -72 -65 -74 -6 -3 -38 21 -71 52 -70 64 -177 159
-214 189 l-25 20 60 89 c33 48 63 90 67 91 5 2 8 8 8 13 0 5 15 31 32 58 l33
49 95 2 c193 3 393 10 398 14 5 6 32 -4 32 -12z m-706 -21 c7 -11 -121 -171
-137 -171 -6 0 -30 17 -53 38 -22 20 -57 52 -78 70 -48 42 -37 58 41 61 31 1
58 3 59 4 7 6 164 4 168 -2z m-370 -173 c12 -13 46 -45 74 -71 29 -26 52 -50
52 -53 0 -5 -15 -21 -116 -130 -17 -19 -36 -34 -41 -34 -8 0 -12 265 -4 303 2
12 11 8 35 -15z m341 -305 c11 -10 63 -54 115 -98 52 -43 94 -83 92 -88 -9
-29 -473 -468 -528 -500 -8 -4 -26 -19 -40 -32 -15 -14 -30 -23 -34 -20 -8 5
-2 320 9 482 1 6 40 51 89 100 107 110 151 158 182 200 l23 32 36 -29 c20 -15
45 -37 56 -47z"/>
</g>
</svg>
