<svg version="1.1" id="Layer_1" xmlns="http://www.w3.org/2000/svg" xmlns:xlink="http://www.w3.org/1999/xlink" x="0px" y="0px"
	 width="100%" viewBox="-22 0 314 314" enable-background="new -22 0 314 314" xml:space="preserve">

<path fill="#792EE5" opacity="1.000000" stroke="none"
	d="
M267.998962,94.011398
	C267.998932,139.986771 267.947083,185.465042 268.096252,230.942657
	C268.108337,234.622192 266.715271,236.382416 263.757477,238.105606
	C240.649414,251.568192 217.649414,265.216034 194.577911,278.741577
	C176.718063,289.211823 158.760025,299.515350 140.946671,310.063629
	C137.054932,312.368134 134.206482,312.401398 130.078278,309.853699
	C115.388405,300.787964 100.255989,292.442169 85.351913,283.719879
	C67.351707,273.185669 49.420300,262.533905 31.445284,251.956543
	C22.878843,246.915634 14.224466,242.020233 5.755000,236.822540
	C4.438230,236.014420 3.118917,233.939941 3.114810,232.447464
	C2.978187,182.805054 2.982776,133.162186 3.097172,83.519676
	C3.100446,82.098991 4.148722,80.055946 5.332781,79.353867
	C37.143711,60.491898 69.030785,41.758247 100.918434,23.025803
	C111.174240,17.001020 121.489326,11.076948 131.729462,5.025858
	C134.318954,3.495671 136.610245,3.460812 139.236176,5.015662
	C167.423050,21.705442 195.641556,38.341843 223.867874,54.964901
	C237.490021,62.987255 251.074127,71.080048 264.852051,78.826897
	C267.496643,80.313850 268.197784,81.832451 268.039215,84.520493
	C267.862946,87.508766 267.998901,90.515457 267.998962,94.011398
M110.500069,130.000076
	C105.628410,134.737442 100.756752,139.474823 95.561066,144.527298
	C105.678612,154.162552 115.458618,163.375656 125.066132,172.765259
	C126.152832,173.827301 126.957466,176.003220 126.705696,177.457016
	C125.904900,182.080887 124.480331,186.592957 123.409424,191.174561
	C120.198174,204.913116 117.040352,218.664139 114.498360,229.657013
	C133.803741,211.543533 154.715683,191.922699 175.771362,172.167007
	C165.450790,161.885696 156.063965,152.439346 146.541656,143.131577
	C144.711502,141.342636 144.246613,139.854416 144.902679,137.272659
	C147.982178,125.153809 150.783157,112.963425 153.610764,100.781677
	C154.851608,95.435913 155.918747,90.049812 157.064758,84.682030
	C156.757950,84.571053 156.451141,84.460083 156.144318,84.349106
	C141.096237,99.399429 126.048157,114.449745 110.500069,130.000076
z"/>
</svg>
